<?xml version="1.0" standalone="no"?>
<!DOCTYPE svg PUBLIC "-//W3C//DTD SVG 20010904//EN"
 "http://www.w3.org/TR/2001/REC-SVG-20010904/DTD/svg10.dtd">
<svg version="1.0" xmlns="http://www.w3.org/2000/svg"
 width="100.000000pt" height="100.000000pt" viewBox="0 0 100.000000 100.000000"
 preserveAspectRatio="xMidYMid meet">
<metadata>
Created by potrace 1.14, written by Peter Selinger 2001-2017
</metadata>
<g transform="translate(0.000000,100.000000) scale(0.100000,-0.100000)"
fill="#000000" stroke="none">
<path d="M100 900 c-19 -19 -20 -33 -20 -400 0 -367 1 -381 20 -400 19 -19 33
-20 400 -20 367 0 381 1 400 20 19 19 20 33 20 400 0 367 -1 381 -20 400 -19
19 -33 20 -400 20 -367 0 -381 -1 -400 -20z m495 -190 c7 -12 -152 -417 -167
-426 -5 -4 -14 -2 -20 4 -7 7 15 72 67 204 42 106 81 201 86 211 11 19 25 22
34 7z m-220 -130 c0 -8 -24 -28 -52 -44 -29 -17 -53 -33 -53 -36 0 -4 22 -19
50 -34 56 -30 67 -43 52 -58 -14 -14 -167 71 -167 91 0 17 133 100 155 98 8
-1 15 -9 15 -17z m345 -23 c41 -23 75 -49 75 -56 0 -18 -144 -104 -162 -97
-24 10 -13 25 42 58 30 18 55 35 55 39 0 3 -22 18 -50 33 -53 29 -65 40 -55
56 9 15 14 13 95 -33z"/>
</g>
</svg>
